<svg width="178" height="180" fill="none" xmlns="http://www.w3.org/2000/svg"><path d="M33.604 104.594L0 153.604l32.445-6.051L38.496 180 70.4 133.472l-36.795-28.878z" fill="#F57F41"/><path d="M144.274 104.594l-36.795 28.878L139.384 180l6.049-32.447 32.445 6.051-33.604-49.01z" fill="#EA623C"/><path d="M88.488 0C48.518 0 16 32.52 16 72.493c0 39.973 32.518 72.492 72.488 72.492 39.971 0 72.49-32.519 72.49-72.493C160.978 32.519 128.459 0 88.488 0z" fill="#FFE07F"/><path d="M88.938 0v144.985c39.971 0 72.491-32.519 72.491-72.493C161.429 32.519 128.909 0 88.939 0z" fill="#FFD23A"/><path d="M49.634 45.603h16.114V102H49.634V61.717h-4.028l4.028-16.114zm60.618 0c13.428 0 20.142 6.164 20.142 18.49 0 11.844-6.714 17.765-20.142 17.765h-8.056c-5.371 0-8.057.55-8.057 1.652v2.377h36.255V102H78.026V83.51c0-11.843 8.056-17.765 24.17-17.765h8.056c2.686 0 4.029-.55 4.029-1.651 0-1.585-1.343-2.377-4.029-2.377H82.054l4.028-16.114h24.17z" fill="#64CD48"/></svg>