<svg width="16" height="16" fill="none" xmlns="http://www.w3.org/2000/svg"><mask id="a" maskUnits="userSpaceOnUse" x="0" y="0" width="16" height="16"><path fill="#C4C4C4" d="M0 0h16v16H0z"/></mask><g mask="url(#a)" fill="#fff"><path d="M13.113 2.887A6.399 6.399 0 008.56 1a.51.51 0 100 1.02 5.39 5.39 0 013.833 1.588 5.385 5.385 0 011.587 3.834.51.51 0 001.021 0c0-1.721-.67-3.339-1.887-4.555z"/><path d="M11.014 7.442a.51.51 0 001.02 0A3.48 3.48 0 008.56 3.966a.51.51 0 000 1.02 2.458 2.458 0 012.455 2.456zm-1.13 2.602c-.778-.04-1.174.538-1.364.816a.51.51 0 10.843.577c.224-.329.326-.38.464-.374.442.052 2.181 1.327 2.356 1.726a.528.528 0 01-.005.372c-.183.542-.485.923-.875 1.102-.37.17-.824.154-1.312-.045-1.822-.742-3.414-1.779-4.731-3.08l-.002-.002C3.96 9.82 2.925 8.23 2.183 6.41c-.199-.488-.214-.942-.044-1.312.178-.39.56-.692 1.1-.874a.527.527 0 01.373-.006c.4.175 1.674 1.915 1.726 2.352.007.143-.045.245-.373.469a.51.51 0 10.576.843c.278-.19.856-.586.816-1.366C6.313 5.7 4.727 3.54 3.97 3.262a1.543 1.543 0 00-1.054-.006c-.816.275-1.405.765-1.704 1.417-.29.632-.28 1.366.027 2.122.793 1.947 1.904 3.651 3.3 5.064a.294.294 0 00.01.01c1.412 1.394 3.114 2.502 5.058 3.295.39.158.773.237 1.14.237.345 0 .676-.07.983-.21.652-.3 1.141-.888 1.416-1.705.122-.362.12-.716-.005-1.052-.28-.76-2.439-2.346-3.256-2.39z"/></g></svg>