<svg width="16" height="16" fill="none" xmlns="http://www.w3.org/2000/svg"><mask id="a" maskUnits="userSpaceOnUse" x="0" y="0" width="16" height="16"><path fill="#C4C4C4" d="M0 0h16v16H0z"/></mask><g mask="url(#a)" fill="#fff"><path d="M8.128 1a5.401 5.401 0 00-5.395 5.395c0 2.126.89 4.277 2.574 6.22 1.257 1.45 2.504 2.272 2.556 2.306a.483.483 0 00.53 0c.052-.034 1.299-.856 2.556-2.307 1.684-1.942 2.574-4.093 2.574-6.219A5.402 5.402 0 008.128 1zm0 12.922C7.136 13.183 3.7 10.338 3.7 6.395a4.433 4.433 0 014.428-4.428 4.433 4.433 0 014.428 4.428c0 3.943-3.436 6.788-4.428 7.527z"/><path d="M8.128 4.253c-1.18 0-2.141.96-2.141 2.142 0 1.18.96 2.14 2.141 2.14 1.18 0 2.141-.96 2.141-2.14 0-1.181-.96-2.142-2.14-2.142zm0 3.315a1.175 1.175 0 010-2.348 1.175 1.175 0 010 2.348z"/></g></svg>