<svg width="16" height="16" fill="none" xmlns="http://www.w3.org/2000/svg"><mask id="a" maskUnits="userSpaceOnUse" x="0" y="0" width="16" height="16"><path fill="#C4C4C4" d="M0 0h16v16H0z"/></mask><g mask="url(#a)" fill="#fff"><path d="M12.192 5.719l-4.21 3.71-4.21-3.71a.405.405 0 10-.535.607l4.478 3.945a.404.404 0 00.535 0l4.477-3.945a.404.404 0 10-.535-.607z"/><path d="M13.269 4H2.696c-.67 0-1.214.544-1.214 1.213v6.418c0 .669.545 1.213 1.214 1.213h10.573c.669 0 1.213-.544 1.213-1.213V5.213c0-.669-.544-1.213-1.213-1.213zm.404 7.631a.405.405 0 01-.404.404H2.696a.405.405 0 01-.405-.404V5.213c0-.223.182-.404.405-.404h10.573c.223 0 .404.181.404.404v6.418z"/></g></svg>