<svg width="180" height="180" fill="none" xmlns="http://www.w3.org/2000/svg"><path d="M31.905 9.914C25.362 3.357 16.437.135 6.555 0A6.467 6.467 0 000 6.568c.133 9.903 3.348 18.847 9.892 25.404 6.543 6.557 15.468 9.779 25.35 9.913a6.466 6.466 0 006.554-6.568c-.133-9.902-3.348-18.846-9.892-25.403z" fill="url(#paint0_linear)"/><path d="M31.905 9.913C25.362 3.356 16.437.135 6.555.001a6.443 6.443 0 00-2.628.52c7.4 1.15 14.023 4.236 19.17 9.393 6.543 6.557 9.758 15.5 9.892 25.403a6.472 6.472 0 01-3.926 6.048c2.008.313 4.071.491 6.18.52a6.466 6.466 0 006.555-6.568c-.135-9.902-3.35-18.846-9.893-25.404z" fill="url(#paint1_linear)"/><path d="M51.463 154.173c-.645-2.534-3.04-4.231-5.635-3.958a30.422 30.422 0 01-3.191.168c-13.863 0-25.97-9.289-29.442-22.589a78.673 78.673 0 01-.317-1.254c-5.03-20.599-1.815-41.88 9.053-59.922C32.8 48.576 50.093 35.807 70.628 30.663a79.402 79.402 0 0119.275-2.39c.489 0 25.44-.028 35.975.014V17.7c-9.501-.038-35.418-.016-35.975-.016-7.208 0-14.53.876-21.837 2.706C19.97 32.438-9.17 80.801 2.615 129.057c.115.474.235.947.357 1.418 4.802 18.391 21.483 30.496 39.664 30.496 1.425 0 2.86-.074 4.297-.225 3.19-.336 5.323-3.459 4.53-6.573z" fill="url(#paint2_linear)"/><path d="M176.419 40.379H148.77a3.585 3.585 0 01-3.581-3.59 3.585 3.585 0 013.581-3.588h27.649A3.585 3.585 0 01180 36.79a3.585 3.585 0 01-3.581 3.589z" fill="url(#paint3_linear)"/><path d="M176.419 13.622H148.77a3.585 3.585 0 01-3.581-3.588 3.585 3.585 0 013.581-3.589h27.649A3.585 3.585 0 01180 10.034a3.585 3.585 0 01-3.581 3.588z" fill="url(#paint4_linear)"/><path d="M121.073 23.433v-.042c0-10.983 8.904-19.887 19.887-19.887h12.732V43.32H140.96c-10.984 0-19.887-8.903-19.887-19.887z" fill="url(#paint5_linear)"/><path d="M143.258 3.505h10.435v39.813h-10.435V3.505z" fill="url(#paint6_linear)"/><path d="M150.53 42.004V4.82a4.82 4.82 0 019.638 0v37.185a4.819 4.819 0 11-9.638 0z" fill="url(#paint7_linear)"/><path d="M89.836 179.986c39.847 0 72.15-32.37 72.15-72.301 0-39.93-32.303-72.3-72.15-72.3-39.848 0-72.15 32.37-72.15 72.3 0 39.931 32.302 72.301 72.15 72.301z" fill="url(#paint8_linear)"/><path d="M159.795 90.004c-8.85-35.162-42.009-57.746-76.964-54.286 29.424 2.913 55.222 23.903 62.869 54.286 9.744 38.718-13.678 78.022-52.315 87.787a72.588 72.588 0 01-10.64 1.861 71.882 71.882 0 0024.735-1.861c38.637-9.765 62.06-49.069 52.315-87.787z" fill="url(#paint9_linear)"/><path d="M46.364 145.137l-15.099 4.8c12.061 16.779 30.882 27.676 51.48 29.715 1.335-1.974 1.875-4.403 1.4-6.738-1.878-9.249-10.04-16.208-19.823-16.208a8.04 8.04 0 01-7.764-5.973c-1.184-4.436-5.825-6.984-10.194-5.596z" fill="url(#paint10_linear)"/><path d="M106.992 150.343c3.705 14.723 21.919 20.014 32.836 9.485 18.046-17.403 26.53-43.745 19.967-69.824l-.169-.658c-2.089-7.987-10.199-12.804-18.188-10.785a15.004 15.004 0 00-9.211 6.869l-9.713 16.299c-2.651 4.448-1.202 10.207 3.237 12.864 4.439 2.656 5.889 8.415 3.238 12.864a28.827 28.827 0 01-17.697 13.196c-3.5.885-5.621 4.445-4.738 7.952l.438 1.738z" fill="url(#paint11_linear)"/><path d="M159.626 89.346c-2.061-7.882-9.985-12.672-17.871-10.857a72.838 72.838 0 013.945 11.515c7.177 28.517-3.639 57.349-25.273 74.465 6.447 1.968 13.863.701 19.401-4.641 18.046-17.403 26.531-43.745 19.967-69.824a66.57 66.57 0 00-.169-.658z" fill="url(#paint12_linear)"/><path d="M77.743 44.518c-6.717-4.02-15.06-4.282-21.96-.589-16.766 8.976-29.074 24.16-34.703 41.823-2.926 9.182.805 19.176 9.063 24.119a18.824 18.824 0 018.586 11.561c1.51 6.001 7.59 9.639 13.578 8.126 9.707-2.454 15.592-12.328 13.144-22.055l-1.076-4.273c-1.784-7.089 2.504-14.284 9.578-16.072a13.21 13.21 0 008.11-6.048l3.438-5.768c6.351-10.659 2.878-24.459-7.758-30.824z" fill="url(#paint13_linear)"/><path d="M100.67 61.425c5.022 0 9.093-4.08 9.093-9.112 0-5.033-4.071-9.113-9.093-9.113s-9.094 4.08-9.094 9.112c0 5.033 4.072 9.113 9.094 9.113z" fill="url(#paint14_linear)"/><defs><linearGradient id="paint0_linear" x1="-2.09" y1="20.943" x2="42.213" y2="20.943" gradientUnits="userSpaceOnUse"><stop stop-color="#A2E62E"/><stop offset=".754" stop-color="#09A76D"/><stop offset="1" stop-color="#017B4E"/></linearGradient><linearGradient id="paint1_linear" x1="-25.659" y1="20.943" x2="36.788" y2="20.943" gradientUnits="userSpaceOnUse"><stop stop-color="#A2E62E"/><stop offset="1" stop-color="#02905D"/></linearGradient><linearGradient id="paint2_linear" x1="0" y1="89.325" x2="125.878" y2="89.325" gradientUnits="userSpaceOnUse"><stop stop-color="#A79BA7"/><stop offset=".749" stop-color="#7A6D79"/><stop offset="1" stop-color="#685E68"/></linearGradient><linearGradient id="paint3_linear" x1="142.342" y1="36.79" x2="179.924" y2="36.79" gradientUnits="userSpaceOnUse"><stop stop-color="#F8F6F7"/><stop offset="1" stop-color="#D1CEEB"/></linearGradient><linearGradient id="paint4_linear" x1="142.342" y1="10.034" x2="179.924" y2="10.034" gradientUnits="userSpaceOnUse"><stop stop-color="#F8F6F7"/><stop offset="1" stop-color="#D1CEEB"/></linearGradient><linearGradient id="paint5_linear" x1="120.477" y1="23.412" x2="153.602" y2="23.412" gradientUnits="userSpaceOnUse"><stop stop-color="#FFF9DF"/><stop offset=".593" stop-color="#FFE177"/><stop offset="1" stop-color="#FEB137"/></linearGradient><linearGradient id="paint6_linear" x1="135.094" y1="23.411" x2="153.748" y2="23.411" gradientUnits="userSpaceOnUse"><stop stop-color="#FFE177"/><stop offset="1" stop-color="#FEB137"/></linearGradient><linearGradient id="paint7_linear" x1="144.603" y1="23.412" x2="163.802" y2="23.412" gradientUnits="userSpaceOnUse"><stop stop-color="#FFF9DF"/><stop offset=".593" stop-color="#FFE177"/><stop offset="1" stop-color="#FEB137"/></linearGradient><linearGradient id="paint8_linear" x1="17.134" y1="107.685" x2="160.646" y2="107.685" gradientUnits="userSpaceOnUse"><stop stop-color="#01D0FB"/><stop offset=".608" stop-color="#26A6FE"/><stop offset="1" stop-color="#0182FC"/></linearGradient><linearGradient id="paint9_linear" x1="82.451" y1="107.685" x2="161.258" y2="107.685" gradientUnits="userSpaceOnUse"><stop stop-color="#01BFFA"/><stop offset=".254" stop-color="#1F9EFC"/><stop offset=".572" stop-color="#407AFD"/><stop offset=".833" stop-color="#5464FF"/><stop offset="1" stop-color="#5B5CFF"/></linearGradient><linearGradient id="paint10_linear" x1="13.838" y1="162.205" x2="87.391" y2="162.205" gradientUnits="userSpaceOnUse"><stop stop-color="#A2E62E"/><stop offset=".754" stop-color="#09A76D"/><stop offset="1" stop-color="#017B4E"/></linearGradient><linearGradient id="paint11_linear" x1="64.241" y1="121.724" x2="157.496" y2="121.724" gradientUnits="userSpaceOnUse"><stop stop-color="#A2E62E"/><stop offset=".754" stop-color="#09A76D"/><stop offset="1" stop-color="#017B4E"/></linearGradient><linearGradient id="paint12_linear" x1="106.773" y1="121.725" x2="171.329" y2="121.725" gradientUnits="userSpaceOnUse"><stop stop-color="#09A76D"/><stop offset="1" stop-color="#026841"/></linearGradient><linearGradient id="paint13_linear" x1="6.949" y1="85.612" x2="121.562" y2="85.612" gradientUnits="userSpaceOnUse"><stop stop-color="#A2E62E"/><stop offset=".754" stop-color="#09A76D"/><stop offset="1" stop-color="#017B4E"/></linearGradient><linearGradient id="paint14_linear" x1="6.949" y1="52.313" x2="121.562" y2="52.313" gradientUnits="userSpaceOnUse"><stop stop-color="#A2E62E"/><stop offset=".754" stop-color="#09A76D"/><stop offset="1" stop-color="#017B4E"/></linearGradient></defs></svg>