<svg width="12" height="14" viewBox="0 0 12 14" fill="none" xmlns="http://www.w3.org/2000/svg">
<path d="M6.12787 0C3.15311 0 0.733032 2.4204 0.733032 5.39548C0.733032 7.52132 1.62304 9.67166 3.30684 11.6141C4.56446 13.0649 5.8108 13.8869 5.86329 13.9212C5.94364 13.9738 6.03579 14 6.12794 14C6.22002 14 6.31217 13.9738 6.39258 13.9212C6.445 13.8869 7.69154 13.0649 8.94916 11.6142C10.6331 9.67166 11.5232 7.52132 11.5232 5.39548C11.5231 2.4204 9.10276 0 6.12787 0ZM6.12787 12.9225C5.13566 12.1832 1.70029 9.33763 1.70029 5.39548C1.70029 2.95374 3.68645 0.967256 6.12787 0.967256C8.56948 0.967256 10.5558 2.95374 10.5558 5.39548C10.5558 9.33763 7.12015 12.1832 6.12787 12.9225Z" fill="white"/>
<path d="M6.12819 3.25317C4.94749 3.25317 3.98694 4.21379 3.98694 5.39461C3.98694 6.57512 4.94749 7.53554 6.12819 7.53554C7.30888 7.53554 8.26937 6.57512 8.26937 5.39461C8.26937 4.21385 7.30882 3.25317 6.12819 3.25317ZM6.12819 6.56828C5.48083 6.56828 4.95419 6.04177 4.95419 5.39461C4.95419 4.74713 5.48083 4.22043 6.12819 4.22043C6.77547 4.22043 7.30211 4.74713 7.30211 5.39461C7.30211 6.04177 6.77547 6.56828 6.12819 6.56828Z" fill="white"/>
</svg>
