<svg width="14" height="10" fill="none" xmlns="http://www.w3.org/2000/svg"><path d="M11.192 2.162l-4.21 3.71-4.21-3.71a.405.405 0 00-.535.607l4.478 3.945a.404.404 0 00.535 0l4.477-3.946a.404.404 0 10-.535-.606z" fill="#fff"/><path d="M12.269.443H1.696C1.026.443.482.987.482 1.656v6.418c0 .669.545 1.213 1.214 1.213h10.573c.669 0 1.213-.544 1.213-1.213V1.656c0-.669-.544-1.213-1.213-1.213zm.404 7.63a.405.405 0 01-.404.405H1.696a.405.405 0 01-.405-.404V1.656c0-.223.182-.404.405-.404h10.573c.223 0 .404.181.404.404v6.418z" fill="#fff"/></svg>