<svg width="14" height="15" viewBox="0 0 14 15" fill="none" xmlns="http://www.w3.org/2000/svg">
<path d="M12.1134 1.88657C10.8968 0.669914 9.27907 -6.80478e-05 7.55855 5.18382e-09C7.27661 5.18382e-09 7.04816 0.228522 7.04816 0.510397C7.04816 0.792273 7.27668 1.02079 7.55855 1.02079C9.00645 1.02073 10.3677 1.58455 11.3916 2.6084C12.4155 3.63226 12.9793 4.99359 12.9792 6.44156C12.9792 6.72343 13.2077 6.95195 13.4896 6.95195C13.7715 6.95195 14 6.72343 14 6.44162C14.0001 4.7209 13.3301 3.10322 12.1134 1.88657Z" fill="white"/>
<path d="M10.0138 6.44183C10.0138 6.72371 10.2424 6.95223 10.5243 6.95216C10.8062 6.95216 11.0346 6.72364 11.0346 6.44176C11.0345 4.52539 9.47513 2.96609 7.55862 2.96582C7.55855 2.96582 7.55862 2.96582 7.55855 2.96582C7.27668 2.96582 7.04822 3.19427 7.04816 3.47615C7.04816 3.75803 7.27661 3.98655 7.55849 3.98662C8.91226 3.98682 10.0137 5.08819 10.0138 6.44183Z" fill="white"/>
<path d="M8.88439 9.04395C8.10641 9.00366 7.71007 9.58225 7.51999 9.86018C7.36082 10.0928 7.42043 10.4105 7.65311 10.5696C7.88578 10.7288 8.20338 10.6692 8.36256 10.4365C8.58713 10.1082 8.68887 10.0565 8.82688 10.063C9.26861 10.115 11.0084 11.3899 11.1826 11.7885C11.2263 11.9059 11.2247 12.021 11.1778 12.161C10.9951 12.7031 10.6928 13.0841 10.3032 13.2626C9.93315 13.4323 9.47944 13.4169 8.99144 13.2183C7.16918 12.4756 5.57715 11.4391 4.25964 10.1375C4.2591 10.1369 4.25855 10.1365 4.25808 10.1359C2.95922 8.81971 1.92461 7.22972 1.1831 5.41026C0.984455 4.92184 0.969075 4.46807 1.13873 4.09806C1.3173 3.70853 1.69826 3.40617 2.2399 3.22372C2.38036 3.17662 2.49523 3.17513 2.61153 3.21841C3.01162 3.39324 4.28645 5.13294 4.3379 5.56971C4.34525 5.71289 4.29319 5.81456 3.96511 6.03873C3.73237 6.1977 3.67255 6.5153 3.83159 6.74804C3.99056 6.98079 4.3081 7.04054 4.54091 6.88157C4.81897 6.6917 5.39742 6.29645 5.35727 5.51581C5.31303 4.7004 3.72685 2.54101 2.96895 2.26233C2.63188 2.13671 2.27733 2.13453 1.91474 2.25621C1.09892 2.53094 0.509717 3.02078 0.210828 3.67273C-0.0790777 4.30521 -0.0698905 5.03903 0.237709 5.79523C1.03128 7.74237 2.14156 9.44607 3.53767 10.8592C3.54107 10.8627 3.54454 10.8661 3.54808 10.8694C4.96018 12.2629 6.66191 13.3712 8.60646 14.1638C8.99586 14.3221 9.37934 14.4014 9.74607 14.4014C10.0914 14.4014 10.422 14.3312 10.7286 14.1906C11.3806 13.8918 11.8704 13.3026 12.1454 12.4863C12.2668 12.1244 12.2648 11.7699 12.1401 11.4344C11.8605 10.6745 9.70109 9.08832 8.88439 9.04395Z" fill="white"/>
</svg>
